<svg width="50" height="51" viewBox="0 0 50 51" fill="none" xmlns="http://www.w3.org/2000/svg">
<g filter="url(#filter0_d_200_795)">
<path fill-rule="evenodd" clip-rule="evenodd" d="M18 15C18 9.06186 23.2304 4 30 4C36.7696 4 42 9.06186 42 15C42 20.9381 36.7696 26 30 26C23.2304 26 18 20.9381 18 15ZM30 0C21.3056 0 14 6.57873 14 15C14 19.1541 15.7777 22.8598 18.6228 25.5487L4.58577 39.5858C3.80472 40.3668 3.80472 41.6332 4.58577 42.4142C5.36682 43.1953 6.63315 43.1953 7.4142 42.4142L21.896 27.9324C24.2872 29.25 27.0644 30 30 30C38.6944 30 46 23.4213 46 15C46 6.57873 38.6944 0 30 0Z" fill="black"/>
</g>
<defs>
<filter id="filter0_d_200_795" x="0" y="0" width="50" height="51" filterUnits="userSpaceOnUse" color-interpolation-filters="sRGB">
<feFlood flood-opacity="0" result="BackgroundImageFix"/>
<feColorMatrix in="SourceAlpha" type="matrix" values="0 0 0 0 0 0 0 0 0 0 0 0 0 0 0 0 0 0 127 0" result="hardAlpha"/>
<feOffset dy="4"/>
<feGaussianBlur stdDeviation="2"/>
<feComposite in2="hardAlpha" operator="out"/>
<feColorMatrix type="matrix" values="0 0 0 0 0 0 0 0 0 0 0 0 0 0 0 0 0 0 0.25 0"/>
<feBlend mode="normal" in2="BackgroundImageFix" result="effect1_dropShadow_200_795"/>
<feBlend mode="normal" in="SourceGraphic" in2="effect1_dropShadow_200_795" result="shape"/>
</filter>
</defs>
</svg>
